<?xml version="1.0" encoding="utf-8"?>
<!-- Svg Vector Icons : http://www.onlinewebfonts.com/icon -->
<!DOCTYPE svg PUBLIC "-//W3C//DTD SVG 1.1//EN" "http://www.w3.org/Graphics/SVG/1.1/DTD/svg11.dtd">
<svg version="1.1" xmlns="http://www.w3.org/2000/svg" xmlns:xlink="http://www.w3.org/1999/xlink" x="0px" y="0px" viewBox="0 0 1000 1000" enable-background="new 0 0 1000 1000" xml:space="preserve">
<metadata> Svg Vector Icons : http://www.onlinewebfonts.com/icon </metadata>
<g><g transform="translate(0.000000,511.000000) scale(0.100000,-0.100000)"><path d="M4621.2,4987.2c-1119.6-143.8-2069.8-981-2367.7-2095.4c-61.6-228.5-69.3-295.3-69.3-713.9c0-418.6,7.7-485.3,66.8-711.3C2407.6,893.9,2756.9,346.9,3188.3,0.2l161.8-131v-945c0-606,10.3-988.7,28.2-1060.6c36-141.2,179.8-313.3,315.9-374.9c97.6-43.7,195.2-48.8,1294.2-48.8c1016.9,0,1201.8,5.1,1284,41.1c120.7,48.8,226,148.9,295.3,279.9c54,100.2,56.5,133.5,64.2,1106.8l7.7,1004.1L6806.5,7.9c503.3,408.3,857.7,1024.6,975.8,1697.4c59.1,344.1,38.5,844.9-51.4,1191.5C7374,4268.1,6038.7,5166.9,4621.2,4987.2z M4577.6,1163.5c161.8-156.7,305.6-231.1,441.7-231.1c138.7,0,218.3,43.7,377.5,213.1c133.5,138.7,136.1,141.2,226,113l89.9-25.7V-575v-1805.3h-102.7h-102.7v1653.8V929.8l-131-87.3c-128.4-89.9-269.6-141.2-374.9-141.2c-95,0-315.8,95-423.7,179.7l-97.6,79.6V-711.1v-1669.2h-102.7h-102.7V-575v1805.3l71.9,28.3c38.5,15.4,77,28.2,84.8,30.8C4438.9,1291.9,4503.1,1235.4,4577.6,1163.5z"/><path d="M3953.5-2804c-120.7-120.7-53.9-300.4,120.7-333.8c46.2-7.7,490.5-12.8,988.6-7.7l901.3,7.7l66.8,61.6c87.3,82.2,87.3,190,2.6,272.2l-61.6,64.2h-978.4h-978.4L3953.5-2804z"/><path d="M4020.3-3307.3c-141.2-56.5-174.6-213.1-66.8-318.4l61.6-64.2h978.4H5972l61.6,64.2c102.7,102.7,77,246.5-56.5,315.8C5907.8-3271.4,4112.8-3268.8,4020.3-3307.3z"/><path d="M3953.5-3908.2c-69.3-69.3-82.2-179.8-28.3-249.1c53.9-71.9,159.2-97.6,395.5-97.6h223.4l2.6-113c5.1-138.7,74.5-264.5,187.5-341.5c295.3-200.3,695.9-5.1,706.2,341.5l2.6,113h223.4c236.3,0,341.6,25.7,395.5,97.6c53.9,69.3,41.1,179.8-28.2,249.1L5972-3844h-978.4h-978.4L3953.5-3908.2z M5127.1-4301.1c43.7-164.4-200.3-259.4-259.3-100.2c-41.1,107.9-7.7,146.4,125.8,146.4C5088.6-4254.9,5119.4-4265.2,5127.1-4301.1z"/></g></g>
</svg>